<svg xmlns="http://www.w3.org/2000/svg" width="14.171" height="14.168" viewBox="0 0 14.171 14.168">
  <g id="Group_6" data-name="Group 6" transform="translate(-19.341 -557.019)">
    <path id="Path_12" data-name="Path 12" d="M26.436,557.021h2.412c.27,0,.54,0,.809.012a3.856,3.856,0,0,1,1.1.223,4.138,4.138,0,0,1,2.457,2.356,4.314,4.314,0,0,1,.293,1.637c0,1.477,0,2.955,0,4.432,0,.506.007,1.012,0,1.518a3.918,3.918,0,0,1-.452,1.752,4.092,4.092,0,0,1-1.711,1.745,3.721,3.721,0,0,1-1.312.439,4.734,4.734,0,0,1-.593.05q-3.039,0-6.078,0a3.806,3.806,0,0,1-1.047-.162,4.1,4.1,0,0,1-2.346-1.777,4.111,4.111,0,0,1-.454-1,4.463,4.463,0,0,1-.172-1.31q0-1.872,0-3.743c0-.721-.007-1.443.006-2.165a3.985,3.985,0,0,1,.873-2.43,4.054,4.054,0,0,1,1.6-1.237,4.135,4.135,0,0,1,.889-.27,6.99,6.99,0,0,1,1.324-.071c.8,0,1.6,0,2.4,0Zm.011,13.076h1c.58,0,1.159-.005,1.739,0a3.435,3.435,0,0,0,1.213-.172,2.973,2.973,0,0,0,1.319-.92,3.009,3.009,0,0,0,.7-1.982q0-.852,0-1.7,0-1.193,0-2.386c0-.583,0-1.165,0-1.747a3.042,3.042,0,0,0-.257-1.281,2.988,2.988,0,0,0-1.381-1.46,2.72,2.72,0,0,0-1.049-.311c-.3-.021-.595-.022-.893-.023-.8,0-1.591,0-2.387,0s-1.613,0-2.42,0a6.176,6.176,0,0,0-1.137.052,2.86,2.86,0,0,0-1.031.394,2.928,2.928,0,0,0-1.416,2.362c-.035.521-.012,1.045-.013,1.568,0,1.477,0,2.954,0,4.432a5.588,5.588,0,0,0,.057.719,2.606,2.606,0,0,0,.317.9,2.947,2.947,0,0,0,.8.93,2.827,2.827,0,0,0,1.591.612c.507.028,1.017.014,1.525.016C25.3,570.1,25.873,570.1,26.447,570.1Z"/>
    <path id="Path_13" data-name="Path 13" d="M30.241,564.115a3.814,3.814,0,1,1-3.748-3.824A3.82,3.82,0,0,1,30.241,564.115Zm-3.821-2.726a2.72,2.72,0,1,0,2.731,2.66A2.712,2.712,0,0,0,26.42,561.389Z"/>
    <path id="Path_14" data-name="Path 14" d="M30.8,559.206a.539.539,0,0,1,.531.553.547.547,0,0,1-1.093-.012A.537.537,0,0,1,30.8,559.206Z"/>
  </g>
</svg>
