<svg xmlns="http://www.w3.org/2000/svg" width="19.278" height="13.581" viewBox="0 0 19.278 13.581">
  <g id="Group_7" data-name="Group 7" transform="translate(-40.875 -557.313)">
    <path id="Path_15" data-name="Path 15" d="M50.646,557.313c1.531.042,2.992.074,4.453.127a21.789,21.789,0,0,1,2.662.23,2.444,2.444,0,0,1,2.166,2.066,9.709,9.709,0,0,1,.224,2.054c-.005,1.642.011,3.285-.007,4.926a7.573,7.573,0,0,1-.3,2.116,2.321,2.321,0,0,1-1.973,1.717,18.153,18.153,0,0,1-1.819.193c-2.213.133-4.43.174-6.647.142-1.108-.016-2.217-.049-3.324-.093a22.97,22.97,0,0,1-2.722-.233,2.418,2.418,0,0,1-2.109-1.906,12.006,12.006,0,0,1-.221-1.426,29.23,29.23,0,0,1-.148-3.463,27.22,27.22,0,0,1,.236-3.494,3.868,3.868,0,0,1,.322-1.241,2.41,2.41,0,0,1,1.977-1.374c.85-.093,1.7-.176,2.556-.211C47.55,557.379,49.133,557.353,50.646,557.313Zm-2.008,9.708,5.051-2.906-5.051-2.906Z"/>
  </g>
</svg>
